<svg width="135" height="78" viewBox="0 0 135 78" fill="none" xmlns="http://www.w3.org/2000/svg">
<path d="M7.552 70V51.12H0.128V47.6H19.136V51.12H11.712V70H7.552ZM27.804 70.224C26.0547 70.224 24.4973 69.8507 23.132 69.104C21.7667 68.336 20.6893 67.2907 19.9 65.968C19.1107 64.6453 18.716 63.1413 18.716 61.456C18.716 59.7493 19.1107 58.2453 19.9 56.944C20.6893 55.6213 21.7667 54.5867 23.132 53.84C24.4973 53.0933 26.0547 52.72 27.804 52.72C29.5747 52.72 31.1427 53.0933 32.508 53.84C33.8947 54.5867 34.972 55.6107 35.74 56.912C36.5293 58.2133 36.924 59.728 36.924 61.456C36.924 63.1413 36.5293 64.6453 35.74 65.968C34.972 67.2907 33.8947 68.336 32.508 69.104C31.1427 69.8507 29.5747 70.224 27.804 70.224ZM27.804 66.8C28.7853 66.8 29.66 66.5867 30.428 66.16C31.196 65.7333 31.7933 65.1147 32.22 64.304C32.668 63.4933 32.892 62.544 32.892 61.456C32.892 60.3467 32.668 59.3973 32.22 58.608C31.7933 57.7973 31.196 57.1787 30.428 56.752C29.66 56.3253 28.796 56.112 27.836 56.112C26.8547 56.112 25.98 56.3253 25.212 56.752C24.4653 57.1787 23.868 57.7973 23.42 58.608C22.972 59.3973 22.748 60.3467 22.748 61.456C22.748 62.544 22.972 63.4933 23.42 64.304C23.868 65.1147 24.4653 65.7333 25.212 66.16C25.98 66.5867 26.844 66.8 27.804 66.8ZM56.9208 70.32C55.1714 70.32 53.4968 70.0747 51.8968 69.584C50.2968 69.072 49.0274 68.4213 48.0888 67.632L49.5288 64.4C50.4248 65.104 51.5341 65.6907 52.8568 66.16C54.1794 66.6293 55.5341 66.864 56.9208 66.864C58.0941 66.864 59.0434 66.736 59.7688 66.48C60.4941 66.224 61.0274 65.8827 61.3688 65.456C61.7101 65.008 61.8808 64.5067 61.8808 63.952C61.8808 63.2693 61.6354 62.7253 61.1448 62.32C60.6541 61.8933 60.0141 61.5627 59.2248 61.328C58.4568 61.072 57.5928 60.8373 56.6328 60.624C55.6941 60.4107 54.7448 60.1653 53.7848 59.888C52.8461 59.5893 51.9821 59.216 51.1927 58.768C50.4248 58.2987 49.7954 57.68 49.3048 56.912C48.8141 56.144 48.5688 55.1627 48.5688 53.968C48.5688 52.752 48.8888 51.6427 49.5288 50.64C50.1901 49.616 51.1821 48.8053 52.5048 48.208C53.8488 47.5893 55.5448 47.28 57.5928 47.28C58.9368 47.28 60.2701 47.4507 61.5928 47.792C62.9154 48.1333 64.0674 48.624 65.0487 49.264L63.7368 52.496C62.7341 51.8987 61.6994 51.4613 60.6328 51.184C59.5661 50.8853 58.5421 50.736 57.5608 50.736C56.4088 50.736 55.4701 50.8747 54.7448 51.152C54.0408 51.4293 53.5181 51.792 53.1768 52.24C52.8568 52.688 52.6968 53.2 52.6968 53.776C52.6968 54.4587 52.9314 55.0133 53.4008 55.44C53.8914 55.8453 54.5208 56.1653 55.2888 56.4C56.0781 56.6347 56.9528 56.8693 57.9128 57.104C58.8728 57.3173 59.8221 57.5627 60.7608 57.84C61.7208 58.1173 62.5848 58.48 63.3528 58.928C64.1421 59.376 64.7714 59.984 65.2408 60.752C65.7314 61.52 65.9768 62.4907 65.9768 63.664C65.9768 64.8587 65.6461 65.968 64.9848 66.992C64.3448 67.9947 63.3528 68.8053 62.0088 69.424C60.6648 70.0213 58.9688 70.32 56.9208 70.32ZM77.3978 70.224C75.6484 70.224 74.0911 69.8507 72.7258 69.104C71.3604 68.336 70.2831 67.2907 69.4938 65.968C68.7044 64.6453 68.3098 63.1413 68.3098 61.456C68.3098 59.7493 68.7044 58.2453 69.4938 56.944C70.2831 55.6213 71.3604 54.5867 72.7258 53.84C74.0911 53.0933 75.6484 52.72 77.3978 52.72C79.1684 52.72 80.7364 53.0933 82.1018 53.84C83.4884 54.5867 84.5658 55.6107 85.3338 56.912C86.1231 58.2133 86.5178 59.728 86.5178 61.456C86.5178 63.1413 86.1231 64.6453 85.3338 65.968C84.5658 67.2907 83.4884 68.336 82.1018 69.104C80.7364 69.8507 79.1684 70.224 77.3978 70.224ZM77.3978 66.8C78.3791 66.8 79.2538 66.5867 80.0218 66.16C80.7898 65.7333 81.3871 65.1147 81.8138 64.304C82.2618 63.4933 82.4858 62.544 82.4858 61.456C82.4858 60.3467 82.2618 59.3973 81.8138 58.608C81.3871 57.7973 80.7898 57.1787 80.0218 56.752C79.2538 56.3253 78.3898 56.112 77.4298 56.112C76.4484 56.112 75.5738 56.3253 74.8058 56.752C74.0591 57.1787 73.4618 57.7973 73.0138 58.608C72.5658 59.3973 72.3418 60.3467 72.3418 61.456C72.3418 62.544 72.5658 63.4933 73.0138 64.304C73.4618 65.1147 74.0591 65.7333 74.8058 66.16C75.5738 66.5867 76.4378 66.8 77.3978 66.8ZM90.3428 70V46.256H94.3428V70H90.3428ZM104.137 70L96.8087 52.912H100.969L107.273 67.984H105.225L111.753 52.912H115.593L108.265 70H104.137ZM125.656 70.224C123.757 70.224 122.093 69.8507 120.664 69.104C119.256 68.336 118.157 67.2907 117.368 65.968C116.6 64.6453 116.216 63.1413 116.216 61.456C116.216 59.7493 116.589 58.2453 117.336 56.944C118.104 55.6213 119.149 54.5867 120.472 53.84C121.816 53.0933 123.341 52.72 125.048 52.72C126.712 52.72 128.195 53.0827 129.496 53.808C130.797 54.5333 131.821 55.5573 132.568 56.88C133.315 58.2027 133.688 59.76 133.688 61.552C133.688 61.7227 133.677 61.9147 133.656 62.128C133.656 62.3413 133.645 62.544 133.624 62.736H119.384V60.08H131.512L129.944 60.912C129.965 59.9307 129.763 59.0667 129.336 58.32C128.909 57.5733 128.323 56.9867 127.576 56.56C126.851 56.1333 126.008 55.92 125.048 55.92C124.067 55.92 123.203 56.1333 122.456 56.56C121.731 56.9867 121.155 57.584 120.728 58.352C120.323 59.0987 120.12 59.984 120.12 61.008V61.648C120.12 62.672 120.355 63.5787 120.824 64.368C121.293 65.1573 121.955 65.7653 122.808 66.192C123.661 66.6187 124.643 66.832 125.752 66.832C126.712 66.832 127.576 66.6827 128.344 66.384C129.112 66.0853 129.795 65.616 130.392 64.976L132.536 67.44C131.768 68.336 130.797 69.0293 129.624 69.52C128.472 69.9893 127.149 70.224 125.656 70.224Z" fill="#E3E9F0"/>
<path d="M57.832 27.256L43.08 21.528V18.072L57.832 12.344V15.672L44.328 20.728V18.872L57.832 23.928V27.256ZM58.915 34.2L69.475 4.056H73.059L62.499 34.2H58.915ZM73.83 27.256V23.928L87.334 18.872V20.728L73.83 15.672V12.344L88.582 18.072V21.528L73.83 27.256Z" fill="#E9FAD4"/>
</svg>
