<svg width="200" height="30" viewBox="0 0 193 39" fill="none" xmlns="http://www.w3.org/2000/svg">
<path d="M65.552 31V12.12H58.128V8.6H77.136V12.12H69.712V31H65.552ZM85.804 31.224C84.0547 31.224 82.4973 30.8507 81.132 30.104C79.7667 29.336 78.6893 28.2907 77.9 26.968C77.1107 25.6453 76.716 24.1413 76.716 22.456C76.716 20.7493 77.1107 19.2453 77.9 17.944C78.6893 16.6213 79.7667 15.5867 81.132 14.84C82.4973 14.0933 84.0547 13.72 85.804 13.72C87.5747 13.72 89.1427 14.0933 90.508 14.84C91.8947 15.5867 92.972 16.6107 93.74 17.912C94.5293 19.2133 94.924 20.728 94.924 22.456C94.924 24.1413 94.5293 25.6453 93.74 26.968C92.972 28.2907 91.8947 29.336 90.508 30.104C89.1427 30.8507 87.5747 31.224 85.804 31.224ZM85.804 27.8C86.7853 27.8 87.66 27.5867 88.428 27.16C89.196 26.7333 89.7933 26.1147 90.22 25.304C90.668 24.4933 90.892 23.544 90.892 22.456C90.892 21.3467 90.668 20.3973 90.22 19.608C89.7933 18.7973 89.196 18.1787 88.428 17.752C87.66 17.3253 86.796 17.112 85.836 17.112C84.8547 17.112 83.98 17.3253 83.212 17.752C82.4653 18.1787 81.868 18.7973 81.42 19.608C80.972 20.3973 80.748 21.3467 80.748 22.456C80.748 23.544 80.972 24.4933 81.42 25.304C81.868 26.1147 82.4653 26.7333 83.212 27.16C83.98 27.5867 84.844 27.8 85.804 27.8ZM114.921 31.32C113.171 31.32 111.497 31.0747 109.897 30.584C108.297 30.072 107.027 29.4213 106.089 28.632L107.529 25.4C108.425 26.104 109.534 26.6907 110.857 27.16C112.179 27.6293 113.534 27.864 114.921 27.864C116.094 27.864 117.043 27.736 117.769 27.48C118.494 27.224 119.027 26.8827 119.369 26.456C119.71 26.008 119.881 25.5067 119.881 24.952C119.881 24.2693 119.635 23.7253 119.145 23.32C118.654 22.8933 118.014 22.5627 117.225 22.328C116.457 22.072 115.593 21.8373 114.633 21.624C113.694 21.4107 112.745 21.1653 111.785 20.888C110.846 20.5893 109.982 20.216 109.193 19.768C108.425 19.2987 107.795 18.68 107.305 17.912C106.814 17.144 106.569 16.1627 106.569 14.968C106.569 13.752 106.889 12.6427 107.529 11.64C108.19 10.616 109.182 9.80533 110.505 9.208C111.849 8.58933 113.545 8.28 115.593 8.28C116.937 8.28 118.27 8.45067 119.593 8.792C120.915 9.13333 122.067 9.624 123.049 10.264L121.737 13.496C120.734 12.8987 119.699 12.4613 118.633 12.184C117.566 11.8853 116.542 11.736 115.561 11.736C114.409 11.736 113.47 11.8747 112.745 12.152C112.041 12.4293 111.518 12.792 111.177 13.24C110.857 13.688 110.697 14.2 110.697 14.776C110.697 15.4587 110.931 16.0133 111.401 16.44C111.891 16.8453 112.521 17.1653 113.289 17.4C114.078 17.6347 114.953 17.8693 115.913 18.104C116.873 18.3173 117.822 18.5627 118.761 18.84C119.721 19.1173 120.585 19.48 121.353 19.928C122.142 20.376 122.771 20.984 123.241 21.752C123.731 22.52 123.977 23.4907 123.977 24.664C123.977 25.8587 123.646 26.968 122.985 27.992C122.345 28.9947 121.353 29.8053 120.009 30.424C118.665 31.0213 116.969 31.32 114.921 31.32ZM135.398 31.224C133.648 31.224 132.091 30.8507 130.726 30.104C129.36 29.336 128.283 28.2907 127.494 26.968C126.704 25.6453 126.31 24.1413 126.31 22.456C126.31 20.7493 126.704 19.2453 127.494 17.944C128.283 16.6213 129.36 15.5867 130.726 14.84C132.091 14.0933 133.648 13.72 135.398 13.72C137.168 13.72 138.736 14.0933 140.102 14.84C141.488 15.5867 142.566 16.6107 143.334 17.912C144.123 19.2133 144.518 20.728 144.518 22.456C144.518 24.1413 144.123 25.6453 143.334 26.968C142.566 28.2907 141.488 29.336 140.102 30.104C138.736 30.8507 137.168 31.224 135.398 31.224ZM135.398 27.8C136.379 27.8 137.254 27.5867 138.022 27.16C138.79 26.7333 139.387 26.1147 139.814 25.304C140.262 24.4933 140.486 23.544 140.486 22.456C140.486 21.3467 140.262 20.3973 139.814 19.608C139.387 18.7973 138.79 18.1787 138.022 17.752C137.254 17.3253 136.39 17.112 135.43 17.112C134.448 17.112 133.574 17.3253 132.806 17.752C132.059 18.1787 131.462 18.7973 131.014 19.608C130.566 20.3973 130.342 21.3467 130.342 22.456C130.342 23.544 130.566 24.4933 131.014 25.304C131.462 26.1147 132.059 26.7333 132.806 27.16C133.574 27.5867 134.438 27.8 135.398 27.8ZM148.343 31V7.256H152.343V31H148.343ZM162.137 31L154.809 13.912H158.969L165.273 28.984H163.225L169.753 13.912H173.593L166.265 31H162.137ZM183.656 31.224C181.757 31.224 180.093 30.8507 178.664 30.104C177.256 29.336 176.157 28.2907 175.368 26.968C174.6 25.6453 174.216 24.1413 174.216 22.456C174.216 20.7493 174.589 19.2453 175.336 17.944C176.104 16.6213 177.149 15.5867 178.472 14.84C179.816 14.0933 181.341 13.72 183.048 13.72C184.712 13.72 186.195 14.0827 187.496 14.808C188.797 15.5333 189.821 16.5573 190.568 17.88C191.315 19.2027 191.688 20.76 191.688 22.552C191.688 22.7227 191.677 22.9147 191.656 23.128C191.656 23.3413 191.645 23.544 191.624 23.736H177.384V21.08H189.512L187.944 21.912C187.965 20.9307 187.763 20.0667 187.336 19.32C186.909 18.5733 186.323 17.9867 185.576 17.56C184.851 17.1333 184.008 16.92 183.048 16.92C182.067 16.92 181.203 17.1333 180.456 17.56C179.731 17.9867 179.155 18.584 178.728 19.352C178.323 20.0987 178.12 20.984 178.12 22.008V22.648C178.12 23.672 178.355 24.5787 178.824 25.368C179.293 26.1573 179.955 26.7653 180.808 27.192C181.661 27.6187 182.643 27.832 183.752 27.832C184.712 27.832 185.576 27.6827 186.344 27.384C187.112 27.0853 187.795 26.616 188.392 25.976L190.536 28.44C189.768 29.336 188.797 30.0293 187.624 30.52C186.472 30.9893 185.149 31.224 183.656 31.224Z" fill="#E3E9F0"/>
<path d="M16.832 27.256L2.08 21.528V18.072L16.832 12.344V15.672L3.328 20.728V18.872L16.832 23.928V27.256ZM17.915 34.2L28.475 4.056H32.059L21.499 34.2H17.915ZM32.83 27.256V23.928L46.334 18.872V20.728L32.83 15.672V12.344L47.582 18.072V21.528L32.83 27.256Z" fill="#E9FAD4"/>
</svg>
